<?xml version="1.0" encoding="utf-8"?>
<!-- Generator: Adobe Illustrator 26.4.1, SVG Export Plug-In . SVG Version: 6.00 Build 0)  -->
<svg version="1.1" id="a" xmlns="http://www.w3.org/2000/svg" xmlns:xlink="http://www.w3.org/1999/xlink" x="0px" y="0px"
	 viewBox="0 0 1081 1081" xml:space="preserve">
<style type="text/css">
	.st0{fill:none;stroke:#6F5643;stroke-width:15;stroke-miterlimit:10;}

	.st2{fill:none;stroke:#6F5643;stroke-width:30;stroke-miterlimit:10;}
</style>
<circle class="st0" cx="521.8" cy="385.5" r="48.3"/>
<circle class="st0" cx="641.7" cy="675.3" r="17.6"/>
<circle class="st0" cx="363.9" cy="521.3" r="55.7"/>
<circle class="st0" cx="419.6" cy="410.8" r="17.4"/>
<circle class="st0" cx="753.1" cy="540.5" r="32.4"/>
<circle class="st0" cx="521.8" cy="715.7" r="28.5"/>
<path class="st0" d="M784.4,696.6c-44.2,27.3-96.2,43.1-152,43.1h0c-29.4,0-57.8-4.4-84.5-12.5c-4.4,10.1-14.4,17.1-26.1,17.1
	c-15.7,0-28.5-12.7-28.5-28.5c0-3.7,0.7-7.3,2-10.5c-53.5-28.8-96.9-73.9-123.5-128.7c-2.6,0.4-5.2,0.6-7.9,0.6
	c-30.8,0-55.7-24.9-55.7-55.7c0-23.6,14.6-43.7,35.3-51.8c0,0,0,0,0,0c-0.4-6.4-0.6-12.8-0.6-19.3c0-57.5,16.8-111,45.6-156.1"/>
<path class="st2" d="M548.7,829.9c2.2-0.1,4.3-0.1,6.5-0.2c0.3,0,0.6,0,1-0.1c1.9-0.1,3.8-0.2,5.7-0.4c0.5,0,1-0.1,1.5-0.1
	c2.1-0.2,4.2-0.3,6.3-0.6c0.5,0,0.9-0.1,1.4-0.2c1.8-0.2,3.6-0.4,5.4-0.6c0.4-0.1,0.9-0.1,1.3-0.2c2.1-0.3,4.1-0.6,6.1-0.9
	c0.5-0.1,1.1-0.2,1.6-0.3c1.8-0.3,3.7-0.6,5.5-0.9c0.3-0.1,0.6-0.1,0.9-0.2c2-0.4,4-0.8,6-1.2c0.6-0.1,1.2-0.2,1.7-0.4
	c2-0.4,4-0.8,6-1.3c0.3-0.1,0.6-0.1,0.9-0.2c1.8-0.4,3.5-0.8,5.3-1.3c0.6-0.1,1.2-0.3,1.7-0.4c1.9-0.5,3.8-1,5.7-1.6
	c0.5-0.1,1-0.3,1.4-0.4c1.6-0.5,3.2-0.9,4.7-1.4c0.5-0.2,1.1-0.3,1.6-0.5c1.9-0.6,3.7-1.2,5.6-1.8c0.6-0.2,1.1-0.4,1.7-0.6
	c1.5-0.5,3.1-1.1,4.6-1.6c0.5-0.2,1-0.3,1.4-0.5c1.8-0.7,3.6-1.4,5.4-2.1c0.6-0.2,1.2-0.5,1.8-0.7c1.6-0.6,3.2-1.3,4.7-1.9
	c0.5-0.2,0.9-0.4,1.4-0.6c1.6-0.7,3.3-1.4,4.9-2.1c0.6-0.3,1.2-0.5,1.8-0.8c1.7-0.8,3.5-1.6,5.2-2.4c0.5-0.2,0.9-0.4,1.4-0.7
	c1.4-0.7,2.8-1.4,4.2-2.1c0.6-0.3,1.2-0.6,1.8-0.9c1.7-0.9,3.3-1.7,5-2.6c0.6-0.3,1.1-0.6,1.7-0.9c1.3-0.7,2.6-1.4,3.9-2.2
	c0.5-0.3,1.1-0.6,1.6-0.9c1.6-0.9,3.2-1.9,4.8-2.8c0.6-0.4,1.2-0.7,1.8-1.1c1.3-0.8,2.6-1.6,3.8-2.4c0.5-0.3,0.9-0.6,1.4-0.9
	c1.6-1,3.1-2,4.6-3.1c0.6-0.4,1.2-0.8,1.8-1.2c1.4-0.9,2.7-1.9,4.1-2.8c0.6-0.4,1.1-0.8,1.7-1.2c1.2-0.9,2.5-1.8,3.7-2.7
	c0.6-0.4,1.2-0.9,1.7-1.3c1.5-1.1,2.9-2.2,4.3-3.3c0.5-0.4,1-0.8,1.5-1.2c1.1-0.9,2.2-1.8,3.3-2.7c0.5-0.4,1.1-0.9,1.6-1.3
	c1.4-1.2,2.8-2.3,4.1-3.5c0.5-0.5,1.1-0.9,1.6-1.4c1-0.9,2.1-1.8,3.1-2.8c0.5-0.4,1-0.9,1.5-1.3c1.3-1.2,2.7-2.4,4-3.7
	c0.5-0.5,1.1-1,1.6-1.5c1.1-1,2.1-2,3.1-3.1c0.5-0.5,1.1-1.1,1.6-1.6c1.1-1.1,2.3-2.3,3.4-3.4c0.5-0.5,1.1-1.1,1.6-1.7
	c1.2-1.2,2.3-2.5,3.5-3.7c0.5-0.5,1-1.1,1.4-1.6c0.9-1,1.9-2.1,2.8-3.2c0.5-0.6,1-1.1,1.5-1.7c1.2-1.4,2.3-2.7,3.5-4.1
	c0.5-0.5,0.9-1.1,1.3-1.6c0.9-1,1.7-2.1,2.5-3.1c0.5-0.6,0.9-1.1,1.4-1.7c1.1-1.4,2.2-2.8,3.3-4.2c0.5-0.6,0.9-1.2,1.4-1.8
	c0.8-1.1,1.6-2.2,2.4-3.3c0.4-0.5,0.8-1.1,1.2-1.6c1-1.5,2.1-2.9,3.1-4.4c0.4-0.6,0.9-1.3,1.3-1.9c0.8-1.2,1.6-2.5,2.4-3.7
	C813,652.4,830,598.4,830,540.5C830,380.6,700.4,251,540.5,251c-55.8,0-107.8,15.8-152,43.1l0,0c-0.2,0.1-0.3,0.2-0.5,0.3
	c-2.2,1.4-4.4,2.8-6.5,4.2c-0.3,0.2-0.6,0.4-0.9,0.6c-1.2,0.8-2.3,1.5-3.4,2.3c-0.1,0-0.1,0.1-0.2,0.1c-2.2,1.5-4.4,3.1-6.6,4.7
	c-0.3,0.2-0.7,0.5-1,0.7c-3.3,2.4-6.6,4.9-9.8,7.5c-0.4,0.3-0.7,0.6-1.1,0.9c-3.1,2.5-6.2,5.2-9.3,7.8c-0.4,0.4-0.8,0.7-1.3,1.1
	c-1.9,1.7-3.8,3.4-5.6,5.2c-0.1,0.1-0.3,0.2-0.4,0.4c-0.9,0.9-1.8,1.7-2.7,2.6c-0.5,0.5-0.9,0.9-1.4,1.4c-1.5,1.4-2.9,2.9-4.3,4.3
	c-0.5,0.5-0.9,1-1.4,1.5c-0.8,0.8-1.6,1.7-2.4,2.5c-0.5,0.6-1.1,1.1-1.6,1.7c-1.2,1.3-2.4,2.6-3.6,4c-0.6,0.7-1.2,1.3-1.8,2
	c-0.7,0.8-1.4,1.6-2.1,2.4c-0.6,0.7-1.3,1.5-1.9,2.2c-1,1.2-2,2.3-2.9,3.5c-0.7,0.8-1.3,1.6-2,2.5c-0.6,0.8-1.2,1.5-1.8,2.3
	c-0.8,1-1.6,2.1-2.4,3.1c-0.7,0.9-1.4,1.9-2.1,2.8c-0.7,1-1.4,1.9-2.1,2.9c-0.5,0.7-1,1.4-1.5,2.1c-1,1.4-2,2.9-3,4.3
	c-0.4,0.6-0.8,1.2-1.2,1.8c-0.7,1.1-1.5,2.2-2.2,3.4c-0.4,0.6-0.8,1.2-1.2,1.9c-1,1.6-2,3.1-2.9,4.7c-0.3,0.5-0.7,1.1-1,1.6
	c-0.8,1.3-1.5,2.6-2.3,3.9c-0.3,0.5-0.6,1-0.9,1.5c-1,1.7-1.9,3.4-2.8,5.1c-0.3,0.5-0.5,1-0.8,1.5c-0.8,1.5-1.6,3-2.4,4.5
	c-0.2,0.4-0.4,0.7-0.6,1.1c-0.9,1.8-1.8,3.6-2.7,5.4c-0.2,0.4-0.4,0.8-0.6,1.3c-0.8,1.7-1.7,3.5-2.5,5.3c-0.1,0.2-0.1,0.3-0.2,0.5
	c-0.9,1.9-1.7,3.9-2.6,5.8c-0.2,0.4-0.3,0.7-0.5,1.1c-1.7,4-3.3,8-4.8,12.1c-0.1,0.3-0.2,0.6-0.3,0.8c-1.5,4.2-3,8.4-4.3,12.7
	c-0.1,0.2-0.1,0.4-0.2,0.6c-1.4,4.4-2.6,8.8-3.8,13.3c0,0.1-0.1,0.2-0.1,0.3c-5.9,23.1-9.1,47.3-9.1,72.2
	C251,700.4,380.6,830,540.5,830c0,0,0,0,0,0c0,0,0,0,0,0c0,0,0,0,0,0c2.2,0,4.4,0,6.6-0.1C547.7,829.9,548.2,829.9,548.7,829.9z"/>
</svg>
